<svg width="512" height="513" viewBox="0 0 512 513" fill="none"
    xmlns="http://www.w3.org/2000/svg">
    <path d="M444.17 32.8665H70.28C49.85 32.8665 32 47.5665 32 67.7565V442.476C32 462.776 49.85 480.866 70.28 480.866H444.06C464.6 480.866 480 462.656 480 442.476V67.7565C480.12 47.5665 464.6 32.8665 444.17 32.8665ZM170.87 406.296H106.69V206.746H170.87V406.296ZM141 176.406H140.54C120 176.406 106.7 161.116 106.7 141.976C106.7 122.486 120.35 107.556 141.35 107.556C162.35 107.556 175.2 122.376 175.66 141.976C175.65 161.116 162.35 176.406 141 176.406ZM405.43 406.296H341.25V297.186C341.25 271.046 331.91 253.186 308.69 253.186C290.95 253.186 280.45 265.186 275.78 276.876C274.03 281.076 273.56 286.796 273.56 292.636V406.296H209.38V206.746H273.56V234.516C282.9 221.216 297.49 202.076 331.44 202.076C373.57 202.076 405.44 229.846 405.44 289.716L405.43 406.296Z" fill="#E2E5E9"/>
</svg>
