<svg width="512" height="512" viewBox="0 0 512 512" fill="none"
    xmlns="http://www.w3.org/2000/svg">
    <path d="M224 304C220.837 303.999 217.745 303.059 215.115 301.301C212.485 299.543 210.435 297.045 209.225 294.122C208.015 291.199 207.698 287.983 208.314 284.881C208.931 281.778 210.454 278.928 212.69 276.69L370.63 118.75C362.456 114.312 353.301 111.991 344 112H104C89.1528 112.016 74.9182 117.921 64.4196 128.42C53.921 138.918 48.0159 153.153 48 168V408C48.0159 422.847 53.921 437.082 64.4196 447.58C74.9182 458.079 89.1528 463.984 104 464H344C358.847 463.984 373.082 458.079 383.58 447.58C394.079 437.082 399.984 422.847 400 408V168C400.009 158.699 397.688 149.544 393.25 141.37L235.31 299.31C233.828 300.8 232.065 301.981 230.124 302.786C228.183 303.591 226.101 304.003 224 304V304Z" fill="black"/>
    <path d="M448 48H336C331.757 48 327.687 49.6857 324.686 52.6863C321.686 55.6869 320 59.7565 320 64C320 68.2435 321.686 72.3131 324.686 75.3137C327.687 78.3143 331.757 80 336 80H409.37L370.63 118.75C380.197 123.947 388.053 131.803 393.25 141.37L432 102.63V176C432 180.243 433.686 184.313 436.686 187.314C439.687 190.314 443.757 192 448 192C452.243 192 456.313 190.314 459.314 187.314C462.314 184.313 464 180.243 464 176V64C464 59.7565 462.314 55.6869 459.314 52.6863C456.313 49.6857 452.243 48 448 48V48Z" fill="black"/>
</svg>
