<svg xmlns="http://www.w3.org/2000/svg" width="58" height="58" viewBox="0 0 58 58">
  <path id="telegram" d="M1126,46a28.97,28.97,0,0,1-29-29,28.994,28.994,0,1,1,40.29,26.722A28.835,28.835,0,0,1,1126,46Zm8.5-35.779c.18,0,.31.059.349.157s-.028.255-.2.41L1121.167,22.9l11.7,8.628a2.516,2.516,0,0,0,1.175.357c.734,0,1.238-.55,1.459-1.59l4.761-22.427a2.254,2.254,0,0,0-.23-1.939A1.279,1.279,0,0,0,1139,5.44a1.86,1.86,0,0,0-.768.177L1110.291,16.4c-.955.387-1.49.88-1.467,1.352.019.393.43.737,1.129.944l7.178,2.247,16.6-10.465A1.527,1.527,0,0,1,1134.5,10.222Z" transform="translate(-1097 12)" fill="#E2E5E9"/>
</svg>
